#!OML:ASF H:\Dans Jumps\Project 1\Capture day 1\Session 1\subject.ASF
:FULLY-SPECIFIED
:DEGREES
111
root 0.464207 17.0842 -14.829 10.7882 -1.72981 -1.6078
lowerback 8.82706 -0.114813 0.171846
upperback 6.6513 -0.162515 2.18084
thorax 1.95489 -0.125149 2.16879
lowerneck -13.3033 0.827899 -1.00241
upperneck 29.0964 1.91161 -1.60512
head 11.7105 0.541676 -0.159483
rclavicle 6.16232e-015 -2.42517e-014
rhumerus -24.1606 -11.7563 -78.9866
rradius 28.5078
rwrist 25.0397
rhand -19.0023 -24.1224
rfingers 7.12502
rthumb 7.30296 -53.9763
lclavicle 6.16232e-015 -2.42517e-014
lhumerus -22.6911 -6.48659 88.4607
lradius 26.3907
lwrist 17.2938
lhand -27.9259 -5.44181
lfingers 7.12502
lthumb -1.31437 24.5339
rfemur -31.053 -1.9146 19.6325
rtibia 38.7932
rfoot -17.1134 -4.099
rtoes 4.14683
lfemur -30.5382 8.54309 -20.3351
ltibia 37.9204
lfoot -15.8229 5.55651
ltoes 1.08526
112
root 0.465638 17.0501 -14.8679 11.0023 -1.74461 -1.58166
lowerback 9.13902 -0.0971444 0.139216
upperback 6.71285 -0.138158 2.17502
thorax 1.84766 -0.113948 2.18071
lowerneck -13.3879 0.827963 -0.975006
upperneck 28.7778 1.90702 -1.63309
head 11.6039 0.542596 -0.174302
rclavicle -2.5842e-015 -5.1684e-015
rhumerus -24.2382 -11.8849 -78.7782
rradius 28.4597
rwrist 25.0471
rhand -19.0105 -24.1108
rfingers 7.12502
rthumb 7.29498 -53.9651
lclavicle -2.5842e-015 -5.1684e-015
lhumerus -22.7743 -6.30825 88.2844
lradius 26.3606
lwrist 17.5952
lhand -28.1817 -5.65958
lfingers 7.12502
lthumb -1.56145 24.3145
rfemur -31.88 -1.93162 19.6216
rtibia 39.5944
rfoot -17.3038 -4.15318
rtoes 3.96728
lfemur -31.3553 8.64391 -20.4474
ltibia 38.7022
lfoot -16.0477 5.5389
ltoes 1.02401
113
root 0.466956 17.0151 -14.9066 11.2171 -1.76224 -1.54767
lowerback 9.44903 -0.0791714 0.100944
upperback 6.77696 -0.114104 2.16366
thorax 1.74447 -0.102989 2.18994
lowerneck -13.4653 0.828017 -0.948879
upperneck 28.4517 1.90163 -1.65874
head 11.4936 0.5434 -0.18812
rclavicle -3.77691e-015 1.15295e-014
rhumerus -24.3366 -12.0184 -78.5649
rradius 28.4104
rwrist 25.0655
rhand -19.013 -24.1192
rfingers 7.12502
rthumb 7.29257 -53.9736
lclavicle -3.77691e-015 1.15295e-014
lhumerus -22.8717 -6.13442 88.1031
lradius 26.3156
lwrist 17.8849
lhand -28.4536 -5.9118
lfingers 7.12502
lthumb -1.82402 24.0601
rfemur -32.7124 -1.94605 19.6024
rtibia 40.4012
rfoot -17.4949 -4.21154
rtoes 3.78068
lfemur -32.174 8.74489 -20.5704
ltibia 39.4852
lfoot -16.2727 5.52403
ltoes 0.959507
114
root 0.468121 16.9792 -14.9454 11.4307 -1.78125 -1.50525
lowerback 9.7588 -0.0609376 0.0562043
upperback 6.84342 -0.0905147 2.1478
thorax 1.6442 -0.0923946 2.19805
lowerneck -13.5348 0.827 -0.922224
upperneck 28.121 1.89479 -1.68635
head 11.3806 0.543444 -0.202921
rclavicle 3.57812e-015 -3.57812e-015
rhumerus -24.4541 -12.1722 -78.342
rradius 28.3508
rwrist 25.1141
rhand -19.0149 -24.1338
rfingers 7.12502
rthumb 7.29074 -53.9882
lclavicle 3.57812e-015 -3.57812e-015
lhumerus -22.986 -5.96119 87.919
lradius 26.2582
lwrist 18.1519
lhand -28.7259 -6.19478
lfingers 7.12502
lthumb -2.08698 23.7748
rfemur -33.5453 -1.96013 19.5746
rtibia 41.2092
rfoot -17.6866 -4.27541
rtoes 3.58978
lfemur -32.9926 8.8471 -20.7048
ltibia 40.2694
lfoot -16.4971 5.50862
ltoes 0.890926
115
root 0.469065 16.9426 -14.9841 11.6418 -1.80392 -1.45899
lowerback 10.0692 -0.0423606 0.00560099
upperback 6.91648 -0.0673967 2.12911
thorax 1.55084 -0.0822359 2.20645
lowerneck -13.5992 0.825316 -0.900362
upperneck 27.7814 1.8873 -1.71214
head 11.2638 0.543018 -0.216269
rclavicle -1.31198e-014 -7.95139e-016
rhumerus -24.586 -12.3282 -78.1172
rradius 28.293
rwrist 25.1733
rhand -19.0277 -24.1661
rfingers 7.12502
rthumb 7.27845 -54.021
lclavicle -1.31198e-014 -7.95139e-016
lhumerus -23.1041 -5.77593 87.7252
lradius 26.1851
lwrist 18.3585
lhand -28.9558 -6.45569
lfingers 7.12502
lthumb -2.30901 23.5116
rfemur -34.3747 -1.96778 19.5429
rtibia 42.015
rfoot -17.8771 -4.35005
rtoes 3.3773
lfemur -33.8097 8.94764 -20.8435
ltibia 41.0563
lfoot -16.7198 5.49734
ltoes 0.81931
116
root 0.469827 16.9051 -15.0225 11.8455 -1.82636 -1.41799
lowerback 10.3861 -0.0238311 -0.0394693
upperback 6.99357 -0.0443038 2.11062
thorax 1.45851 -0.071936 2.21185
lowerneck -13.6642 0.819784 -0.884565
upperneck 27.445 1.87447 -1.73281
head 11.149 0.540109 -0.227381
rclavicle -1.98785e-016 3.18055e-014
rhumerus -24.734 -12.5084 -77.8801
rradius 28.2224
rwrist 25.2636
rhand -19.0333 -24.2013
rfingers 7.12502
rthumb 7.27297 -54.0563
lclavicle -1.98785e-016 3.18055e-014
lhumerus -23.2411 -5.57409 87.5255
lradius 26.1045
lwrist 18.5037
lhand -29.1315 -6.69708
lfingers 7.12502
lthumb -2.47868 23.2683
rfemur -35.1937 -1.97036 19.5175
rtibia 42.8184
rfoot -18.0671 -4.43752
rtoes 3.14009
lfemur -34.6217 9.04482 -20.975
ltibia 41.8493
lfoot -16.9415 5.49019
ltoes 0.747809
117
root 0.470418 16.8663 -15.0609 12.0458 -1.84618 -1.38663
lowerback 10.7063 -0.00643245 -0.0761632
upperback 7.07537 -0.0224289 2.0951
thorax 1.36972 -0.0620796 2.21562
lowerneck -13.7375 0.814883 -0.870878
upperneck 27.1113 1.86297 -1.75245
head 11.0376 0.537581 -0.237507
rclavicle -3.97569e-016 -5.56597e-015
rhumerus -24.8992 -12.696 -77.632
rradius 28.1519
rwrist 25.3723
rhand -19.0299 -24.2324
rfingers 7.12502
rthumb 7.27628 -54.0873
lclavicle -3.97569e-016 -5.56597e-015
lhumerus -23.3895 -5.3559 87.3219
lradius 26.0069
lwrist 18.5886
lhand -29.2628 -6.94246
lfingers 7.12502
lthumb -2.6055 23.0214
rfemur -36.0076 -1.96931 19.5035
rtibia 43.6198
rfoot -18.2554 -4.53786
rtoes 2.87594
lfemur -35.4355 9.13317 -21.0935
ltibia 42.6505
lfoot -17.1616 5.49183
ltoes 0.669101
118
root 0.470881 16.8265 -15.0992 12.2392 -1.86085 -1.36558
lowerback 11.0337 0.00798462 -0.102294
upperback 7.16197 -0.00388631 2.08219
thorax 1.28259 -0.0536397 2.21637
lowerneck -13.816 0.812938 -0.855648
upperneck 26.7785 1.85556 -1.77309
head 10.9283 0.536863 -0.247654
rclavicle -1.98785e-015 -1.43125e-014
rhumerus -25.0788 -12.894 -77.3728
rradius 28.072
rwrist 25.5
rhand -19.031 -24.2524
rfingers 7.12502
rthumb 7.2752 -54.1073
lclavicle -1.98785e-015 -1.43125e-014
lhumerus -23.5527 -5.1252 87.1139
lradius 25.8955
lwrist 18.6252
lhand -29.3446 -7.11503
lfingers 7.12502
lthumb -2.68448 22.8478
rfemur -36.8126 -1.96783 19.5016
rtibia 44.4217
rfoot -18.4442 -4.64534
rtoes 2.59967
lfemur -36.2466 9.20829 -21.1967
ltibia 43.4611
lfoot -17.3811 5.50405
ltoes 0.591412
119
root 0.471378 16.7855 -15.1372 12.4275 -1.8655 -1.35509
lowerback 11.3642 0.0176343 -0.113233
upperback 7.25334 0.00947291 2.07107
thorax 1.19937 -0.0473812 2.21087
lowerneck -13.8955 0.815294 -0.836658
upperneck 26.4409 1.85338 -1.79484
head 10.8181 0.538771 -0.258113
rclavicle -4.57205e-015 1.07344e-014
rhumerus -25.2706 -13.102 -77.1038
rradius 27.9826
rwrist 25.6491
rhand -19.0307 -24.2467
rfingers 7.12502
rthumb 7.27548 -54.1016
lclavicle -4.57205e-015 1.07344e-014
lhumerus -23.7271 -4.88858 86.9022
lradius 25.7694
lwrist 18.6277
lhand -29.4061 -7.25423
lfingers 7.12502
lthumb -2.74387 22.7079
rfemur -37.6109 -1.97145 19.5117
rtibia 45.2265
rfoot -18.6365 -4.75427
rtoes 2.32986
lfemur -37.0573 9.2633 -21.2836
ltibia 44.2808
lfoot -17.5993 5.53076
ltoes 0.507126
120
root 0.47191 16.7433 -15.175 12.6126 -1.86457 -1.35087
lowerback 11.6981 0.0241272 -0.116256
upperback 7.34635 0.0193122 2.06191
thorax 1.11664 -0.0426821 2.20327
lowerneck -13.9762 0.822295 -0.81206
upperneck 26.1015 1.85787 -1.82278
head 10.7083 0.543508 -0.27083
rclavicle 1.33186e-014 -1.59028e-015
rhumerus -25.4777 -13.3147 -76.8231
rradius 27.8825
rwrist 25.8108
rhand -19.0324 -24.228
rfingers 7.12502
rthumb 7.27391 -54.083
lclavicle 1.33186e-014 -1.59028e-015
lhumerus -23.9174 -4.65642 86.6923
lradius 25.6278
lwrist 18.6178
lhand -29.4598 -7.34061
lfingers 7.12502
lthumb -2.7958 22.6208
rfemur -38.4072 -1.98007 19.5289
rtibia 46.0376
rfoot -18.8323 -4.86
rtoes 2.0666
lfemur -37.8679 9.2998 -21.3597
ltibia 45.1079
lfoot -17.8166 5.57565
ltoes 0.412172
121
root 0.472552 16.7 -15.2121 12.7958 -1.85786 -1.35354
lowerback 12.0318 0.0266894 -0.110994
upperback 7.44043 0.024719 2.0554
thorax 1.0358 -0.040005 2.1942
lowerneck -14.0506 0.835065 -0.782866
upperneck 25.7575 1.87122 -1.85922
head 10.5964 0.551785 -0.28619
rclavicle -2.38542e-015 -3.57812e-015
rhumerus -25.6956 -13.5287 -76.533
rradius 27.7685
rwrist 25.9839
rhand -19.0353 -24.2185
rfingers 7.12502
rthumb 7.27104 -54.0736
lclavicle -2.38542e-015 -3.57812e-015
lhumerus -24.1217 -4.42064 86.4836
lradius 25.4721
lwrist 18.5974
lhand -29.507 -7.38562
lfingers 7.12502
lthumb -2.84132 22.5752
rfemur -39.2038 -1.99335 19.5536
rtibia 46.8574
rfoot -19.0329 -4.96225
rtoes 1.81503
lfemur -38.6782 9.31551 -21.424
ltibia 45.9411
lfoot -18.0324 5.642
ltoes 0.304153
122
root 0.473264 16.6554 -15.2488 12.9791 -1.84464 -1.35328
lowerback 12.3632 0.0260417 -0.107521
upperback 7.53273 0.0257839 2.04986
thorax 0.954956 -0.039559 2.18763
lowerneck -14.116 0.849019 -0.753282
upperneck 25.4104 1.88748 -1.90224
head 10.4824 0.560744 -0.303566
rclavicle -2.98177e-015 9.54166e-015
rhumerus -25.93 -13.7391 -76.2328
rradius 27.6468
rwrist 26.1631
rhand -19.0258 -24.2217
rfingers 7.12502
rthumb 7.28023 -54.0764
lclavicle -2.98177e-015 9.54166e-015
lhumerus -24.3402 -4.18825 86.2794
lradius 25.2983
lwrist 18.5754
lhand -29.5267 -7.38181
lfingers 7.12502
lthumb -2.8604 22.5788
rfemur -40.0042 -2.01603 19.5758
rtibia 47.688
rfoot -19.2399 -5.05748
rtoes 1.58675
lfemur -39.489 9.30966 -21.488
ltibia 46.7783
lfoot -18.2477 5.73005
ltoes 0.182547
